<?xml version="1.0" encoding="UTF-8"?>
<!DOCTYPE svg PUBLIC "-//W3C//DTD SVG 1.1//EN" "http://www.w3.org/Graphics/SVG/1.1/DTD/svg11.dtd">
<svg xmlns="http://www.w3.org/2000/svg" version="1.1" width="1920px" height="1080px" style="shape-rendering:geometricPrecision; text-rendering:geometricPrecision; image-rendering:optimizeQuality; fill-rule:evenodd; clip-rule:evenodd" xmlns:xlink="http://www.w3.org/1999/xlink">
<g><path style="opacity:1" fill="#eaebec" d="M -0.5,-0.5 C 639.5,-0.5 1279.5,-0.5 1919.5,-0.5C 1919.5,25.5 1919.5,51.5 1919.5,77.5C 1896.02,88.5298 1872.69,99.5298 1849.5,110.5C 1843.9,112.634 1838.57,115.301 1833.5,118.5C 1833.44,117.957 1833.11,117.624 1832.5,117.5C 1825.71,120.895 1819.04,124.228 1812.5,127.5C 1766.72,148.223 1721.05,169.223 1675.5,190.5C 1675.5,187.5 1675.5,184.5 1675.5,181.5C 1676.41,174.229 1674.91,167.562 1671,161.5C 1662.93,152.215 1653.09,145.548 1641.5,141.5C 1636.08,135.576 1629.91,130.576 1623,126.5C 1624.35,120.307 1624.68,113.974 1624,107.5C 1622.37,102.554 1619.54,98.5538 1615.5,95.5C 1597.33,85.5009 1583.83,89.8342 1575,108.5C 1574.27,114.658 1574.6,120.658 1576,126.5C 1569.86,130.163 1564.36,134.663 1559.5,140C 1547.93,144.367 1537.76,150.867 1529,159.5C 1522.69,168.379 1520.86,178.045 1523.5,188.5C 1523.78,192.97 1525.28,196.97 1528,200.5C 1533.7,206.37 1539.54,212.036 1545.5,217.5C 1546.17,218.833 1546.83,220.167 1547.5,221.5C 1552.33,228.795 1555.33,236.795 1556.5,245.5C 1429.79,303.542 1303.12,362.208 1176.5,421.5C 1173.5,389.436 1170.16,357.436 1166.5,325.5C 1178.96,317.57 1184.13,306.237 1182,291.5C 1181.28,289.121 1180.12,287.121 1178.5,285.5C 1176.59,284.025 1175.42,282.025 1175,279.5C 1173.22,277.21 1171.06,275.543 1168.5,274.5C 1175.73,254.655 1182.9,234.655 1190,214.5C 1193.52,210.463 1195.69,205.796 1196.5,200.5C 1198.81,189.389 1196.31,179.389 1189,170.5C 1185.96,156.632 1177.8,147.298 1164.5,142.5C 1165.09,138.029 1164.42,134.029 1162.5,130.5C 1162.95,127.99 1162.28,125.99 1160.5,124.5C 1162.48,122.697 1164.65,121.03 1167,119.5C 1171.82,109.694 1171.65,100.027 1166.5,90.5C 1159.73,88.4588 1152.73,86.9588 1145.5,86C 1144.66,84.9887 1144.33,83.8221 1144.5,82.5C 1146.17,77.1674 1147.83,71.834 1149.5,66.5C 1150.53,66.1034 1150.69,65.4368 1150,64.5C 1142.39,55.1828 1132.55,50.6828 1120.5,51C 1117.62,53.3852 1114.62,55.5518 1111.5,57.5C 1110.36,57.9081 1109.36,58.5748 1108.5,59.5C 1109.71,60.9948 1109.71,62.3281 1108.5,63.5C 1106.43,61.8996 1104.1,61.3996 1101.5,62C 1098.62,64.3852 1095.62,66.5518 1092.5,68.5C 1090.29,69.8936 1088.79,71.8936 1088,74.5C 1086.79,82.7506 1087.62,90.7506 1090.5,98.5C 1091.03,99.1924 1091.69,99.6924 1092.5,100C 1099.5,101.215 1106.5,102.381 1113.5,103.5C 1113.55,106.992 1112.55,109.992 1110.5,112.5C 1103.9,112.81 1098.4,115.81 1094,121.5C 1090.85,126.077 1090.69,130.743 1093.5,135.5C 1092.52,139.634 1092.18,143.968 1092.5,148.5C 1091.53,146.393 1091.2,144.059 1091.5,141.5C 1077.15,146.019 1068.65,155.686 1066,170.5C 1059.29,176.477 1057.12,183.811 1059.5,192.5C 1058.53,194.948 1058.19,197.615 1058.5,200.5C 1059.23,204.896 1060.9,208.896 1063.5,212.5C 1070.55,232.931 1077.88,253.264 1085.5,273.5C 1081.37,276.293 1078.37,279.96 1076.5,284.5C 1076.19,283.262 1075.69,283.262 1075,284.5C 1067.79,301.47 1071.79,315.137 1087,325.5C 1087.19,327.708 1087.69,329.708 1088.5,331.5C 1092.5,334.169 1096.84,336.335 1101.5,338C 1115.64,341.613 1129.97,342.446 1144.5,340.5C 1147.22,398.86 1150.38,457.193 1154,515.5C 1153.97,518.361 1154.8,520.695 1156.5,522.5C 1151.49,524.546 1146.15,525.713 1140.5,526C 1116.92,530.139 1095.92,524.806 1077.5,510C 1072.71,504.975 1070.71,498.975 1071.5,492C 1072.09,483.795 1072.59,475.628 1073,467.5C 1071.26,469.063 1069.76,470.73 1068.5,472.5C 1068.44,471.957 1068.11,471.624 1067.5,471.5C 997.087,504.184 926.754,536.85 856.5,569.5C 856.709,570.086 857.043,570.586 857.5,571C 1156.38,740.159 1454.71,909.659 1752.5,1079.5C 1168.17,1079.5 583.833,1079.5 -0.5,1079.5C -0.5,719.5 -0.5,359.5 -0.5,-0.5 Z"/></g>
<g><path style="opacity:1" fill="#c4c4c3" d="M 1149.5,66.5 C 1145.18,68.6602 1141.18,71.3269 1137.5,74.5C 1136.22,70.698 1133.89,67.5313 1130.5,65C 1124.47,61.3009 1118.13,58.8009 1111.5,57.5C 1114.62,55.5518 1117.62,53.3852 1120.5,51C 1132.55,50.6828 1142.39,55.1828 1150,64.5C 1150.69,65.4368 1150.53,66.1034 1149.5,66.5 Z"/></g>
<g><path style="opacity:1" fill="#e4e4e4" d="M 1111.5,57.5 C 1118.13,58.8009 1124.47,61.3009 1130.5,65C 1133.89,67.5313 1136.22,70.698 1137.5,74.5C 1135.63,80.0966 1133.97,85.7632 1132.5,91.5C 1131.6,92.209 1131.26,93.209 1131.5,94.5C 1139.29,95.3252 1146.96,96.6586 1154.5,98.5C 1158.29,105.69 1159.45,113.357 1158,121.5C 1157.21,123.587 1156.04,125.421 1154.5,127C 1154.73,127.399 1155.06,127.565 1155.5,127.5C 1155.19,128.478 1154.52,129.145 1153.5,129.5C 1152.09,128.049 1150.59,126.716 1149,125.5C 1148.54,126.094 1148.37,126.761 1148.5,127.5C 1143.93,121.772 1138.43,116.772 1132,112.5C 1132.69,120.255 1134.19,127.922 1136.5,135.5C 1136.75,136.713 1137.41,137.38 1138.5,137.5C 1135.14,139.379 1131.48,139.879 1127.5,139C 1121.55,137.027 1116.22,134.027 1111.5,130C 1109.13,128.257 1107.8,125.923 1107.5,123C 1108.4,119.455 1109.4,115.955 1110.5,112.5C 1112.55,109.992 1113.55,106.992 1113.5,103.5C 1106.5,102.381 1099.5,101.215 1092.5,100C 1091.69,99.6924 1091.03,99.1924 1090.5,98.5C 1087.62,90.7506 1086.79,82.7506 1088,74.5C 1088.79,71.8936 1090.29,69.8936 1092.5,68.5C 1099.17,74.4921 1106.17,80.1588 1113.5,85.5C 1113.83,84.8333 1114.17,84.1667 1114.5,83.5C 1113.41,76.4545 1111.41,69.7878 1108.5,63.5C 1109.71,62.3281 1109.71,60.9948 1108.5,59.5C 1109.36,58.5748 1110.36,57.9081 1111.5,57.5 Z"/></g>
<g><path style="opacity:1" fill="#c4c4c4" d="M 1108.5,63.5 C 1111.41,69.7878 1113.41,76.4545 1114.5,83.5C 1114.17,84.1667 1113.83,84.8333 1113.5,85.5C 1106.17,80.1588 1099.17,74.4921 1092.5,68.5C 1095.62,66.5518 1098.62,64.3852 1101.5,62C 1104.1,61.3996 1106.43,61.8996 1108.5,63.5 Z"/></g>
<g><path style="opacity:1" fill="#a6a6a6" d="M 1149.5,66.5 C 1147.83,71.834 1146.17,77.1674 1144.5,82.5C 1141.98,86.9545 1138.31,90.2878 1133.5,92.5C 1132.89,92.3764 1132.56,92.0431 1132.5,91.5C 1133.97,85.7632 1135.63,80.0966 1137.5,74.5C 1141.18,71.3269 1145.18,68.6602 1149.5,66.5 Z"/></g>
<g><path style="opacity:1" fill="#71a761" d="M 1919.5,77.5 C 1919.5,90.5 1919.5,103.5 1919.5,116.5C 1915.52,114.508 1911.52,112.508 1907.5,110.5C 1895.44,115.866 1883.44,121.199 1871.5,126.5C 1864.56,120.689 1857.23,115.356 1849.5,110.5C 1872.69,99.5298 1896.02,88.5298 1919.5,77.5 Z"/></g>
<g><path style="opacity:1" fill="#c3c3c3" d="M 1144.5,82.5 C 1144.33,83.8221 1144.66,84.9887 1145.5,86C 1152.73,86.9588 1159.73,88.4588 1166.5,90.5C 1164.69,90.4914 1163.02,90.9914 1161.5,92C 1158.64,93.7354 1156.3,95.9021 1154.5,98.5C 1146.96,96.6586 1139.29,95.3252 1131.5,94.5C 1131.26,93.209 1131.6,92.209 1132.5,91.5C 1132.56,92.0431 1132.89,92.3764 1133.5,92.5C 1138.31,90.2878 1141.98,86.9545 1144.5,82.5 Z"/></g>
<g><path style="opacity:1" fill="#a6a6a6" d="M 1166.5,90.5 C 1171.65,100.027 1171.82,109.694 1167,119.5C 1164.65,121.03 1162.48,122.697 1160.5,124.5C 1159,125.752 1157.33,126.752 1155.5,127.5C 1155.06,127.565 1154.73,127.399 1154.5,127C 1156.04,125.421 1157.21,123.587 1158,121.5C 1159.45,113.357 1158.29,105.69 1154.5,98.5C 1156.3,95.9021 1158.64,93.7354 1161.5,92C 1163.02,90.9914 1164.69,90.4914 1166.5,90.5 Z"/></g>
<g><path style="opacity:1" fill="#353535" d="M 1615.5,95.5 C 1619.54,98.5538 1622.37,102.554 1624,107.5C 1624.68,113.974 1624.35,120.307 1623,126.5C 1629.91,130.576 1636.08,135.576 1641.5,141.5C 1647.09,149.231 1651.76,157.565 1655.5,166.5C 1655.09,173.814 1652.09,179.98 1646.5,185C 1638.86,190.153 1630.53,193.653 1621.5,195.5C 1632.26,178.671 1632.1,162.005 1621,145.5C 1618.07,143.286 1615.24,140.953 1612.5,138.5C 1598.11,146.134 1586.78,142.968 1578.5,129C 1594.93,134.029 1606.76,128.862 1614,113.5C 1614.79,107.78 1614.62,102.114 1613.5,96.5C 1613.96,95.7025 1614.62,95.3691 1615.5,95.5 Z"/></g>
<g><path style="opacity:1" fill="#fefefe" d="M 1849.5,110.5 C 1857.23,115.356 1864.56,120.689 1871.5,126.5C 1890.81,143.129 1906.81,162.463 1919.5,184.5C 1919.5,259.833 1919.5,335.167 1919.5,410.5C 1916.81,411.847 1914.14,413.18 1911.5,414.5C 1914.85,387.959 1917.18,361.293 1918.5,334.5C 1919.16,282.658 1906.33,234.658 1880,190.5C 1868.81,173.458 1855.31,158.458 1839.5,145.5C 1833.25,139.425 1826.25,134.258 1818.5,130C 1817.75,129.329 1817.41,128.496 1817.5,127.5C 1822.8,124.515 1828.13,121.515 1833.5,118.5C 1838.57,115.301 1843.9,112.634 1849.5,110.5 Z"/></g>
<g><path style="opacity:1" fill="#fdfdfd" d="M 1110.5,112.5 C 1109.4,115.955 1108.4,119.455 1107.5,123C 1107.8,125.923 1109.13,128.257 1111.5,130C 1116.22,134.027 1121.55,137.027 1127.5,139C 1131.48,139.879 1135.14,139.379 1138.5,137.5C 1141.25,134.945 1144.25,132.612 1147.5,130.5C 1148.39,129.675 1148.72,128.675 1148.5,127.5C 1148.37,126.761 1148.54,126.094 1149,125.5C 1150.59,126.716 1152.09,128.049 1153.5,129.5C 1154.52,129.145 1155.19,128.478 1155.5,127.5C 1157.33,126.752 1159,125.752 1160.5,124.5C 1162.28,125.99 1162.95,127.99 1162.5,130.5C 1162.5,130.833 1162.5,131.167 1162.5,131.5C 1159.14,140.349 1152.8,145.683 1143.5,147.5C 1129.84,150.89 1116.51,150.057 1103.5,145C 1099.64,142.304 1096.31,139.137 1093.5,135.5C 1090.69,130.743 1090.85,126.077 1094,121.5C 1098.4,115.81 1103.9,112.81 1110.5,112.5 Z"/></g>
<g><path style="opacity:1" fill="#e0e1c4" d="M 1919.5,116.5 C 1919.5,139.167 1919.5,161.833 1919.5,184.5C 1906.81,162.463 1890.81,143.129 1871.5,126.5C 1883.44,121.199 1895.44,115.866 1907.5,110.5C 1911.52,112.508 1915.52,114.508 1919.5,116.5 Z"/></g>
<g><path style="opacity:1" fill="#a6a6a6" d="M 1148.5,127.5 C 1148.72,128.675 1148.39,129.675 1147.5,130.5C 1144.25,132.612 1141.25,134.945 1138.5,137.5C 1137.41,137.38 1136.75,136.713 1136.5,135.5C 1134.19,127.922 1132.69,120.255 1132,112.5C 1138.43,116.772 1143.93,121.772 1148.5,127.5 Z"/></g>
<g><path style="opacity:1" fill="#4c4c4c" d="M 1615.5,95.5 C 1614.62,95.3691 1613.96,95.7025 1613.5,96.5C 1614.62,102.114 1614.79,107.78 1614,113.5C 1606.76,128.862 1594.93,134.029 1578.5,129C 1586.78,142.968 1598.11,146.134 1612.5,138.5C 1615.24,140.953 1618.07,143.286 1621,145.5C 1632.1,162.005 1632.26,178.671 1621.5,195.5C 1601.37,199.377 1581.71,197.877 1562.5,191C 1556.1,187.934 1550.93,183.434 1547,177.5C 1545.96,175.13 1545.46,172.63 1545.5,170C 1545.85,167.122 1546.02,164.289 1546,161.5C 1542.97,165.35 1541.97,169.684 1543,174.5C 1546.41,184.244 1552.91,191.077 1562.5,195C 1591.19,206.548 1618.86,204.548 1645.5,189C 1653.13,183.245 1656.47,175.745 1655.5,166.5C 1651.76,157.565 1647.09,149.231 1641.5,141.5C 1653.09,145.548 1662.93,152.215 1671,161.5C 1674.91,167.562 1676.41,174.229 1675.5,181.5C 1671.95,191.23 1665.61,198.73 1656.5,204C 1647.74,208.874 1638.41,212.374 1628.5,214.5C 1602.28,219.902 1576.62,218.068 1551.5,209C 1542.33,204.994 1534.49,199.161 1528,191.5C 1526.39,188.618 1525.06,185.618 1524,182.5C 1523.5,184.473 1523.34,186.473 1523.5,188.5C 1520.86,178.045 1522.69,168.379 1529,159.5C 1537.76,150.867 1547.93,144.367 1559.5,140C 1564.36,134.663 1569.86,130.163 1576,126.5C 1574.6,120.658 1574.27,114.658 1575,108.5C 1583.83,89.8342 1597.33,85.5009 1615.5,95.5 Z"/></g>
<g><path style="opacity:1" fill="#8eb781" d="M 1833.5,118.5 C 1828.13,121.515 1822.8,124.515 1817.5,127.5C 1816.57,128.568 1816.23,129.901 1816.5,131.5C 1816.17,131.5 1815.83,131.5 1815.5,131.5C 1815.5,130.167 1815.5,128.833 1815.5,127.5C 1814.5,127.5 1813.5,127.5 1812.5,127.5C 1819.04,124.228 1825.71,120.895 1832.5,117.5C 1833.11,117.624 1833.44,117.957 1833.5,118.5 Z"/></g>
<g><path style="opacity:1" fill="#70a55f" d="M 1812.5,127.5 C 1813.5,127.5 1814.5,127.5 1815.5,127.5C 1815.5,128.833 1815.5,130.167 1815.5,131.5C 1815.81,134.247 1815.48,136.914 1814.5,139.5C 1807.53,143.164 1800.86,147.164 1794.5,151.5C 1792.18,152.802 1790.84,154.802 1790.5,157.5C 1785.04,158.484 1779.71,159.984 1774.5,162C 1763.64,168.063 1752.98,174.229 1742.5,180.5C 1741.17,180.5 1740.5,181.167 1740.5,182.5C 1739.84,184.369 1739.17,186.369 1738.5,188.5C 1712.2,200.65 1685.86,212.817 1659.5,225C 1705.27,251.392 1751.27,277.558 1797.5,303.5C 1798.3,303.957 1798.63,304.624 1798.5,305.5C 1792.7,313.533 1789.04,322.533 1787.5,332.5C 1791.04,339.542 1795.2,346.208 1800,352.5C 1801.41,354.65 1802.24,356.984 1802.5,359.5C 1801.6,360.29 1800.93,361.29 1800.5,362.5C 1783.93,370.953 1773.6,384.286 1769.5,402.5C 1731.83,419.833 1694.17,437.167 1656.5,454.5C 1655.43,448.844 1654.43,443.177 1653.5,437.5C 1650.46,399.071 1646.46,360.737 1641.5,322.5C 1643.08,319.078 1645.58,316.412 1649,314.5C 1658.82,304.518 1660.99,293.184 1655.5,280.5C 1652.2,272.906 1646.87,267.239 1639.5,263.5C 1640.07,248.465 1644.07,234.465 1651.5,221.5C 1653.56,219.073 1655.39,216.407 1657,213.5C 1665.68,207.671 1671.85,200.004 1675.5,190.5C 1721.05,169.223 1766.72,148.223 1812.5,127.5 Z"/></g>
<g><path style="opacity:1" fill="#d4d4d4" d="M 1817.5,127.5 C 1817.41,128.496 1817.75,129.329 1818.5,130C 1826.25,134.258 1833.25,139.425 1839.5,145.5C 1838.43,146.251 1838.26,147.251 1839,148.5C 1849.37,169.542 1856.53,191.542 1860.5,214.5C 1862.18,238.979 1850.85,251.479 1826.5,252C 1831.93,254.606 1837.59,256.439 1843.5,257.5C 1847.68,258.166 1852.02,258.833 1856.5,259.5C 1859.39,265.338 1860.72,271.504 1860.5,278C 1858.73,303.509 1854.9,328.675 1849,353.5C 1846.29,367.426 1844.12,381.426 1842.5,395.5C 1832.71,388.215 1823.04,380.715 1813.5,373C 1810.54,368.92 1807.71,364.753 1805,360.5C 1804.33,359.748 1803.5,359.414 1802.5,359.5C 1802.24,356.984 1801.41,354.65 1800,352.5C 1795.2,346.208 1791.04,339.542 1787.5,332.5C 1789.04,322.533 1792.7,313.533 1798.5,305.5C 1805.16,296.756 1810.99,287.423 1816,277.5C 1819.28,267.848 1819.28,258.181 1816,248.5C 1810.9,246.691 1805.9,244.691 1801,242.5C 1800.1,242.743 1799.26,243.077 1798.5,243.5C 1796.81,240.995 1794.48,240.162 1791.5,241C 1789.95,243.943 1788.28,246.777 1786.5,249.5C 1785.05,250.613 1783.39,250.78 1781.5,250C 1774.98,247.827 1768.65,245.16 1762.5,242C 1756.88,235.258 1751.38,228.425 1746,221.5C 1742.61,208.755 1740.78,195.755 1740.5,182.5C 1740.5,181.167 1741.17,180.5 1742.5,180.5C 1755.48,176.683 1768.48,172.85 1781.5,169C 1786.14,166.514 1789.14,162.681 1790.5,157.5C 1790.84,154.802 1792.18,152.802 1794.5,151.5C 1801.52,152.672 1808.52,154.006 1815.5,155.5C 1815.73,147.495 1816.06,139.495 1816.5,131.5C 1816.23,129.901 1816.57,128.568 1817.5,127.5 Z"/></g>
<g><path style="opacity:1" fill="#acacac" d="M 1162.5,131.5 C 1166.51,148.128 1160.18,158.795 1143.5,163.5C 1143.5,158.167 1143.5,152.833 1143.5,147.5C 1152.8,145.683 1159.14,140.349 1162.5,131.5 Z"/></g>
<g><path style="opacity:1" fill="#d4d4d4" d="M 1093.5,135.5 C 1096.31,139.137 1099.64,142.304 1103.5,145C 1116.51,150.057 1129.84,150.89 1143.5,147.5C 1143.5,152.833 1143.5,158.167 1143.5,163.5C 1142.51,163.328 1141.84,163.662 1141.5,164.5C 1129.26,166.491 1117.26,165.658 1105.5,162C 1098.92,159.589 1094.59,155.089 1092.5,148.5C 1092.18,143.968 1092.52,139.634 1093.5,135.5 Z"/></g>
<g><path style="opacity:1" fill="#bec0bd" d="M 1815.5,131.5 C 1815.83,131.5 1816.17,131.5 1816.5,131.5C 1816.06,139.495 1815.73,147.495 1815.5,155.5C 1808.52,154.006 1801.52,152.672 1794.5,151.5C 1800.86,147.164 1807.53,143.164 1814.5,139.5C 1815.48,136.914 1815.81,134.247 1815.5,131.5 Z"/></g>
<g><path style="opacity:1" fill="#fefefe" d="M 1092.5,148.5 C 1094.59,155.089 1098.92,159.589 1105.5,162C 1117.26,165.658 1129.26,166.491 1141.5,164.5C 1147.15,167.059 1150.98,171.392 1153,177.5C 1154.41,186.084 1154.91,194.75 1154.5,203.5C 1128.95,210.92 1104.61,208.087 1081.5,195C 1074.27,189.788 1069.44,182.955 1067,174.5C 1067.53,185.069 1072.36,193.236 1081.5,199C 1094.7,206.925 1109.03,210.758 1124.5,210.5C 1134.55,209.825 1144.55,208.992 1154.5,208C 1157.74,211.728 1160.74,215.561 1163.5,219.5C 1136.1,227.067 1109.1,225.9 1082.5,216C 1071.56,211.231 1063.9,203.398 1059.5,192.5C 1057.12,183.811 1059.29,176.477 1066,170.5C 1068.65,155.686 1077.15,146.019 1091.5,141.5C 1091.2,144.059 1091.53,146.393 1092.5,148.5 Z"/></g>
<g><path style="opacity:1" fill="#e0e0e0" d="M 1162.5,131.5 C 1162.5,131.167 1162.5,130.833 1162.5,130.5C 1164.42,134.029 1165.09,138.029 1164.5,142.5C 1177.8,147.298 1185.96,156.632 1189,170.5C 1196.31,179.389 1198.81,189.389 1196.5,200.5C 1196.66,198.143 1196.5,195.81 1196,193.5C 1193.51,199.647 1189.67,204.814 1184.5,209C 1177.99,212.989 1171.32,216.489 1164.5,219.5C 1164.17,219.5 1163.83,219.5 1163.5,219.5C 1160.74,215.561 1157.74,211.728 1154.5,208C 1144.55,208.992 1134.55,209.825 1124.5,210.5C 1109.03,210.758 1094.7,206.925 1081.5,199C 1072.36,193.236 1067.53,185.069 1067,174.5C 1069.44,182.955 1074.27,189.788 1081.5,195C 1104.61,208.087 1128.95,210.92 1154.5,203.5C 1154.91,194.75 1154.41,186.084 1153,177.5C 1150.98,171.392 1147.15,167.059 1141.5,164.5C 1141.84,163.662 1142.51,163.328 1143.5,163.5C 1160.18,158.795 1166.51,148.128 1162.5,131.5 Z"/></g>
<g><path style="opacity:1" fill="#c0c0c0" d="M 1839.5,145.5 C 1855.31,158.458 1868.81,173.458 1880,190.5C 1906.33,234.658 1919.16,282.658 1918.5,334.5C 1917.18,361.293 1914.85,387.959 1911.5,414.5C 1908.27,415.414 1904.94,415.747 1901.5,415.5C 1915.31,360.012 1914.81,304.679 1900,249.5C 1893.84,228.992 1885.01,209.826 1873.5,192C 1872.22,191.316 1871.05,191.483 1870,192.5C 1868.24,195.182 1867.74,197.848 1868.5,200.5C 1868.21,203.866 1868.05,207.2 1868,210.5C 1887.74,250.114 1899.41,292.114 1903,336.5C 1903.5,329.508 1903.67,322.508 1903.5,315.5C 1903.72,347.618 1901.72,379.784 1897.5,412C 1897.61,413.681 1898.27,414.848 1899.5,415.5C 1897.26,416.687 1894.76,417.354 1892,417.5C 1873.27,414.877 1856.77,407.544 1842.5,395.5C 1844.12,381.426 1846.29,367.426 1849,353.5C 1854.9,328.675 1858.73,303.509 1860.5,278C 1860.72,271.504 1859.39,265.338 1856.5,259.5C 1852.02,258.833 1847.68,258.166 1843.5,257.5C 1848.84,257.666 1854.18,257.499 1859.5,257C 1862,255.833 1863.83,254 1865,251.5C 1867.79,237.775 1866.45,224.441 1861,211.5C 1860.52,212.448 1860.35,213.448 1860.5,214.5C 1856.53,191.542 1849.37,169.542 1839,148.5C 1838.26,147.251 1838.43,146.251 1839.5,145.5 Z"/></g>
<g><path style="opacity:1" fill="#bdbfbc" d="M 1790.5,157.5 C 1789.14,162.681 1786.14,166.514 1781.5,169C 1768.48,172.85 1755.48,176.683 1742.5,180.5C 1752.98,174.229 1763.64,168.063 1774.5,162C 1779.71,159.984 1785.04,158.484 1790.5,157.5 Z"/></g>
<g><path style="opacity:1" fill="#2b2b2b" d="M 1621.5,195.5 C 1630.53,193.653 1638.86,190.153 1646.5,185C 1652.09,179.98 1655.09,173.814 1655.5,166.5C 1656.47,175.745 1653.13,183.245 1645.5,189C 1618.86,204.548 1591.19,206.548 1562.5,195C 1552.91,191.077 1546.41,184.244 1543,174.5C 1541.97,169.684 1542.97,165.35 1546,161.5C 1546.02,164.289 1545.85,167.122 1545.5,170C 1545.46,172.63 1545.96,175.13 1547,177.5C 1550.93,183.434 1556.1,187.934 1562.5,191C 1581.71,197.877 1601.37,199.377 1621.5,195.5 Z"/></g>
<g><path style="opacity:1" fill="#a4a4a4" d="M 1799.5,181.5 C 1806.55,182.108 1812.72,184.775 1818,189.5C 1818.93,193.244 1818.43,196.744 1816.5,200C 1807,199.366 1800.33,194.532 1796.5,185.5C 1796.79,183.557 1797.79,182.223 1799.5,181.5 Z"/></g>
<g><path style="opacity:1" fill="#bcbcbc" d="M 1154.5,203.5 C 1164.97,200.351 1174.13,195.018 1182,187.5C 1184.25,183.993 1186.25,180.327 1188,176.5C 1187.57,184.527 1184.07,191.027 1177.5,196C 1170.58,201.128 1162.91,204.628 1154.5,206.5C 1154.5,205.5 1154.5,204.5 1154.5,203.5 Z"/></g>
<g><path style="opacity:1" fill="#2a2a2a" d="M 1628.5,214.5 C 1627.87,217.672 1627.21,220.839 1626.5,224C 1624.78,224.346 1623.12,224.846 1621.5,225.5C 1620.91,225.291 1620.41,224.957 1620,224.5C 1610.24,225.915 1600.4,226.915 1590.5,227.5C 1587.73,225.754 1584.9,225.421 1582,226.5C 1580.17,225.142 1578.34,224.808 1576.5,225.5C 1572.24,224.395 1568.07,223.061 1564,221.5C 1563.67,221.833 1563.33,222.167 1563,222.5C 1557.76,219.877 1552.43,217.544 1547,215.5C 1545.97,215.836 1545.47,216.503 1545.5,217.5C 1539.54,212.036 1533.7,206.37 1528,200.5C 1525.28,196.97 1523.78,192.97 1523.5,188.5C 1523.34,186.473 1523.5,184.473 1524,182.5C 1525.06,185.618 1526.39,188.618 1528,191.5C 1534.49,199.161 1542.33,204.994 1551.5,209C 1576.62,218.068 1602.28,219.902 1628.5,214.5 Z"/></g>
<g><path style="opacity:1" fill="#232323" d="M 1675.5,181.5 C 1675.5,184.5 1675.5,187.5 1675.5,190.5C 1671.85,200.004 1665.68,207.671 1657,213.5C 1655.39,216.407 1653.56,219.073 1651.5,221.5C 1641.48,225.506 1631.15,228.506 1620.5,230.5C 1603.77,232.174 1587.1,231.674 1570.5,229C 1562.77,226.813 1555.1,224.313 1547.5,221.5C 1546.83,220.167 1546.17,218.833 1545.5,217.5C 1545.47,216.503 1545.97,215.836 1547,215.5C 1552.43,217.544 1557.76,219.877 1563,222.5C 1563.33,222.167 1563.67,221.833 1564,221.5C 1568.07,223.061 1572.24,224.395 1576.5,225.5C 1578.34,224.808 1580.17,225.142 1582,226.5C 1584.9,225.421 1587.73,225.754 1590.5,227.5C 1600.4,226.915 1610.24,225.915 1620,224.5C 1620.41,224.957 1620.91,225.291 1621.5,225.5C 1623.12,224.846 1624.78,224.346 1626.5,224C 1627.21,220.839 1627.87,217.672 1628.5,214.5C 1638.41,212.374 1647.74,208.874 1656.5,204C 1665.61,198.73 1671.95,191.23 1675.5,181.5 Z"/></g>
<g><path style="opacity:1" fill="#e0e1c4" d="M 1740.5,182.5 C 1740.78,195.755 1742.61,208.755 1746,221.5C 1751.38,228.425 1756.88,235.258 1762.5,242C 1768.65,245.16 1774.98,247.827 1781.5,250C 1783.39,250.78 1785.05,250.613 1786.5,249.5C 1790.71,247.968 1794.71,245.968 1798.5,243.5C 1799.26,243.077 1800.1,242.743 1801,242.5C 1805.9,244.691 1810.9,246.691 1816,248.5C 1819.28,258.181 1819.28,267.848 1816,277.5C 1810.99,287.423 1805.16,296.756 1798.5,305.5C 1798.63,304.624 1798.3,303.957 1797.5,303.5C 1751.27,277.558 1705.27,251.392 1659.5,225C 1685.86,212.817 1712.2,200.65 1738.5,188.5C 1739.17,186.369 1739.84,184.369 1740.5,182.5 Z"/></g>
<g><path style="opacity:1" fill="#b3b3b3" d="M 1901.5,415.5 C 1900.83,415.5 1900.17,415.5 1899.5,415.5C 1898.27,414.848 1897.61,413.681 1897.5,412C 1901.72,379.784 1903.72,347.618 1903.5,315.5C 1901.73,273.709 1890.57,234.709 1870,198.5C 1869.28,199.044 1868.78,199.711 1868.5,200.5C 1867.74,197.848 1868.24,195.182 1870,192.5C 1871.05,191.483 1872.22,191.316 1873.5,192C 1885.01,209.826 1893.84,228.992 1900,249.5C 1914.81,304.679 1915.31,360.012 1901.5,415.5 Z"/></g>
<g><path style="opacity:1" fill="#d6d6d6" d="M 1059.5,192.5 C 1063.9,203.398 1071.56,211.231 1082.5,216C 1109.1,225.9 1136.1,227.067 1163.5,219.5C 1163.83,219.5 1164.17,219.5 1164.5,219.5C 1165.96,226.221 1163.29,229.721 1156.5,230C 1127.8,237.054 1100.47,233.721 1074.5,220C 1067.01,215.032 1061.67,208.532 1058.5,200.5C 1058.19,197.615 1058.53,194.948 1059.5,192.5 Z"/></g>
<g><path style="opacity:1" fill="#a5a5a5" d="M 1751.5,196.5 C 1758.87,196.714 1761.37,200.38 1759,207.5C 1757.61,209.227 1755.94,210.561 1754,211.5C 1753.23,211.355 1752.56,211.022 1752,210.5C 1751.5,205.845 1751.33,201.179 1751.5,196.5 Z"/></g>
<g><path style="opacity:1" fill="#dfdfdf" d="M 1903.5,315.5 C 1903.67,322.508 1903.5,329.508 1903,336.5C 1899.41,292.114 1887.74,250.114 1868,210.5C 1868.05,207.2 1868.21,203.866 1868.5,200.5C 1868.78,199.711 1869.28,199.044 1870,198.5C 1890.57,234.709 1901.73,273.709 1903.5,315.5 Z"/></g>
<g><path style="opacity:1" fill="#a6a6a6" d="M 1843.5,257.5 C 1837.59,256.439 1831.93,254.606 1826.5,252C 1850.85,251.479 1862.18,238.979 1860.5,214.5C 1860.35,213.448 1860.52,212.448 1861,211.5C 1866.45,224.441 1867.79,237.775 1865,251.5C 1863.83,254 1862,255.833 1859.5,257C 1854.18,257.499 1848.84,257.666 1843.5,257.5 Z"/></g>
<g><path style="opacity:1" fill="#e4e4e4" d="M 1063.5,212.5 C 1075.06,224.115 1089.06,231.281 1105.5,234C 1123.37,236.43 1141.03,235.597 1158.5,231.5C 1153.87,256.138 1148.53,280.638 1142.5,305C 1142.57,305.765 1142.9,306.265 1143.5,306.5C 1129.18,310.093 1115.18,308.927 1101.5,303C 1099,300.5 1096.5,298 1094,295.5C 1091.43,288.04 1088.6,280.707 1085.5,273.5C 1077.88,253.264 1070.55,232.931 1063.5,212.5 Z"/></g>
<g><path style="opacity:1" fill="#c1c1c1" d="M 1196.5,200.5 C 1195.69,205.796 1193.52,210.463 1190,214.5C 1182.9,234.655 1175.73,254.655 1168.5,274.5C 1166.01,281.836 1163.18,289.169 1160,296.5C 1155.36,301.238 1149.86,304.571 1143.5,306.5C 1142.9,306.265 1142.57,305.765 1142.5,305C 1148.53,280.638 1153.87,256.138 1158.5,231.5C 1141.03,235.597 1123.37,236.43 1105.5,234C 1089.06,231.281 1075.06,224.115 1063.5,212.5C 1060.9,208.896 1059.23,204.896 1058.5,200.5C 1061.67,208.532 1067.01,215.032 1074.5,220C 1100.47,233.721 1127.8,237.054 1156.5,230C 1163.29,229.721 1165.96,226.221 1164.5,219.5C 1171.32,216.489 1177.99,212.989 1184.5,209C 1189.67,204.814 1193.51,199.647 1196,193.5C 1196.5,195.81 1196.66,198.143 1196.5,200.5 Z"/></g>
<g><path style="opacity:1" fill="#2a2a2a" d="M 1651.5,221.5 C 1644.07,234.465 1640.07,248.465 1639.5,263.5C 1642.13,279.915 1636.13,291.582 1621.5,298.5C 1620.2,296.777 1619.53,294.61 1619.5,292C 1617.81,275.532 1617.31,259.032 1618,242.5C 1618.33,238.354 1619.16,234.354 1620.5,230.5C 1631.15,228.506 1641.48,225.506 1651.5,221.5 Z"/></g>
<g><path style="opacity:1" fill="#383838" d="M 1547.5,221.5 C 1555.1,224.313 1562.77,226.813 1570.5,229C 1587.1,231.674 1603.77,232.174 1620.5,230.5C 1619.16,234.354 1618.33,238.354 1618,242.5C 1617.31,259.032 1617.81,275.532 1619.5,292C 1619.53,294.61 1620.2,296.777 1621.5,298.5C 1605.42,304.183 1589.42,303.683 1573.5,297C 1568.62,293.786 1564.79,289.619 1562,284.5C 1560.93,276.398 1560.1,268.398 1559.5,260.5C 1559.88,255.106 1558.88,250.106 1556.5,245.5C 1555.33,236.795 1552.33,228.795 1547.5,221.5 Z"/></g>
<g><path style="opacity:1" fill="#8f8f8e" d="M 1798.5,243.5 C 1794.71,245.968 1790.71,247.968 1786.5,249.5C 1788.28,246.777 1789.95,243.943 1791.5,241C 1794.48,240.162 1796.81,240.995 1798.5,243.5 Z"/></g>
<g><path style="opacity:1" fill="#70a65f" d="M 1556.5,245.5 C 1558.88,250.106 1559.88,255.106 1559.5,260.5C 1559.65,261.552 1559.48,262.552 1559,263.5C 1553.22,267.445 1548.72,272.445 1545.5,278.5C 1544.11,280.273 1542.94,282.273 1542,284.5C 1539.66,300.142 1545.16,312.142 1558.5,320.5C 1559.43,321.689 1559.76,323.022 1559.5,324.5C 1556.52,346.621 1554.19,368.955 1552.5,391.5C 1550.78,399.945 1549.78,408.612 1549.5,417.5C 1549.67,418.492 1549.34,419.158 1548.5,419.5C 1512.3,399.237 1476.3,378.737 1440.5,358C 1429.69,352.662 1419.02,347.162 1408.5,341.5C 1331.85,376.358 1255.51,411.358 1179.5,446.5C 1178.83,438.112 1177.83,429.778 1176.5,421.5C 1303.12,362.208 1429.79,303.542 1556.5,245.5 Z"/></g>
<g><path style="opacity:1" fill="#4b4b4b" d="M 1559.5,260.5 C 1560.1,268.398 1560.93,276.398 1562,284.5C 1564.79,289.619 1568.62,293.786 1573.5,297C 1589.42,303.683 1605.42,304.183 1621.5,298.5C 1636.13,291.582 1642.13,279.915 1639.5,263.5C 1646.87,267.239 1652.2,272.906 1655.5,280.5C 1655.64,290.082 1651.97,298.249 1644.5,305C 1622.8,319.054 1599.46,322.387 1574.5,315C 1562.74,311.563 1553.57,304.73 1547,294.5C 1545.55,289.017 1545.05,283.683 1545.5,278.5C 1548.72,272.445 1553.22,267.445 1559,263.5C 1559.48,262.552 1559.65,261.552 1559.5,260.5 Z"/></g>
<g><path style="opacity:1" fill="#fdfdfd" d="M 1085.5,273.5 C 1088.6,280.707 1091.43,288.04 1094,295.5C 1096.5,298 1099,300.5 1101.5,303C 1115.18,308.927 1129.18,310.093 1143.5,306.5C 1149.86,304.571 1155.36,301.238 1160,296.5C 1163.18,289.169 1166.01,281.836 1168.5,274.5C 1171.06,275.543 1173.22,277.21 1175,279.5C 1175.42,282.025 1176.59,284.025 1178.5,285.5C 1180.18,296.99 1176.18,306.157 1166.5,313C 1143.91,324.937 1120.58,326.603 1096.5,318C 1085.55,314.047 1078.38,306.547 1075,295.5C 1074.24,291.643 1074.74,287.977 1076.5,284.5C 1078.37,279.96 1081.37,276.293 1085.5,273.5 Z"/></g>
<g><path style="opacity:1" fill="#2a2a2a" d="M 1545.5,278.5 C 1545.05,283.683 1545.55,289.017 1547,294.5C 1553.57,304.73 1562.74,311.563 1574.5,315C 1599.46,322.387 1622.8,319.054 1644.5,305C 1651.97,298.249 1655.64,290.082 1655.5,280.5C 1660.99,293.184 1658.82,304.518 1649,314.5C 1645.58,316.412 1643.08,319.078 1641.5,322.5C 1646.46,360.737 1650.46,399.071 1653.5,437.5C 1653.61,446.737 1654.61,455.737 1656.5,464.5C 1656.37,466.292 1656.7,467.958 1657.5,469.5C 1659.22,481.111 1659.72,492.778 1659,504.5C 1652.97,516.359 1643.47,524.026 1630.5,527.5C 1628.84,526.051 1628,524.051 1628,521.5C 1624.67,460.167 1621.33,398.833 1618,337.5C 1617.16,336.376 1615.99,335.709 1614.5,335.5C 1596.82,338.391 1579.82,336.224 1563.5,329C 1561.25,328.252 1559.92,326.752 1559.5,324.5C 1559.76,323.022 1559.43,321.689 1558.5,320.5C 1545.16,312.142 1539.66,300.142 1542,284.5C 1542.94,282.273 1544.11,280.273 1545.5,278.5 Z"/></g>
<g><path style="opacity:1" fill="#d4d4d4" d="M 1076.5,284.5 C 1074.74,287.977 1074.24,291.643 1075,295.5C 1078.38,306.547 1085.55,314.047 1096.5,318C 1120.58,326.603 1143.91,324.937 1166.5,313C 1176.18,306.157 1180.18,296.99 1178.5,285.5C 1180.12,287.121 1181.28,289.121 1182,291.5C 1184.13,306.237 1178.96,317.57 1166.5,325.5C 1140.99,339.669 1115.33,340.003 1089.5,326.5C 1088.55,328.045 1088.21,329.712 1088.5,331.5C 1087.69,329.708 1087.19,327.708 1087,325.5C 1071.79,315.137 1067.79,301.47 1075,284.5C 1075.69,283.262 1076.19,283.262 1076.5,284.5 Z"/></g>
<g><path style="opacity:1" fill="#c0c0c0" d="M 1166.5,325.5 C 1170.16,357.436 1173.5,389.436 1176.5,421.5C 1177.83,429.778 1178.83,438.112 1179.5,446.5C 1180.17,453.5 1180.83,460.5 1181.5,467.5C 1183.51,479.489 1183.68,491.489 1182,503.5C 1175.79,512.86 1167.29,519.193 1156.5,522.5C 1154.8,520.695 1153.97,518.361 1154,515.5C 1150.38,457.193 1147.22,398.86 1144.5,340.5C 1129.97,342.446 1115.64,341.613 1101.5,338C 1096.84,336.335 1092.5,334.169 1088.5,331.5C 1088.21,329.712 1088.55,328.045 1089.5,326.5C 1115.33,340.003 1140.99,339.669 1166.5,325.5 Z"/></g>
<g><path style="opacity:1" fill="#383838" d="M 1559.5,324.5 C 1559.92,326.752 1561.25,328.252 1563.5,329C 1579.82,336.224 1596.82,338.391 1614.5,335.5C 1615.99,335.709 1617.16,336.376 1618,337.5C 1621.33,398.833 1624.67,460.167 1628,521.5C 1628,524.051 1628.84,526.051 1630.5,527.5C 1605.52,535.532 1581.18,533.699 1557.5,522C 1543.79,513.554 1538.62,501.387 1542,485.5C 1542.43,479.754 1543.27,474.087 1544.5,468.5C 1546.01,452.19 1547.34,435.856 1548.5,419.5C 1549.34,419.158 1549.67,418.492 1549.5,417.5C 1551.22,409.055 1552.22,400.388 1552.5,391.5C 1554.19,368.955 1556.52,346.621 1559.5,324.5 Z"/></g>
<g><path style="opacity:1" fill="#e1e1e1" d="M 1802.5,359.5 C 1803.5,359.414 1804.33,359.748 1805,360.5C 1807.71,364.753 1810.54,368.92 1813.5,373C 1823.04,380.715 1832.71,388.215 1842.5,395.5C 1856.77,407.544 1873.27,414.877 1892,417.5C 1894.76,417.354 1897.26,416.687 1899.5,415.5C 1900.17,415.5 1900.83,415.5 1901.5,415.5C 1904.94,415.747 1908.27,415.414 1911.5,414.5C 1914.14,413.18 1916.81,411.847 1919.5,410.5C 1919.5,411.833 1919.5,413.167 1919.5,414.5C 1898.34,425.929 1875.67,430.096 1851.5,427C 1832.59,424.628 1816.42,416.795 1803,403.5C 1796.02,394.407 1793.52,384.074 1795.5,372.5C 1796.64,368.883 1798.31,365.55 1800.5,362.5C 1800.93,361.29 1801.6,360.29 1802.5,359.5 Z"/></g>
<g><path style="opacity:1" fill="#c0c0bf" d="M 1800.5,362.5 C 1798.31,365.55 1796.64,368.883 1795.5,372.5C 1787.81,405.957 1800.15,428.457 1832.5,440C 1831.94,440.383 1831.61,440.883 1831.5,441.5C 1823.36,447.64 1818.02,455.64 1815.5,465.5C 1815.16,475.376 1814.16,485.043 1812.5,494.5C 1812.05,493.542 1811.38,492.708 1810.5,492C 1777.73,478.604 1763.39,454.437 1767.5,419.5C 1768.33,413.895 1769,408.228 1769.5,402.5C 1773.6,384.286 1783.93,370.953 1800.5,362.5 Z"/></g>
<g><path style="opacity:1" fill="#d3d3d3" d="M 1795.5,372.5 C 1793.52,384.074 1796.02,394.407 1803,403.5C 1816.42,416.795 1832.59,424.628 1851.5,427C 1875.67,430.096 1898.34,425.929 1919.5,414.5C 1919.5,420.167 1919.5,425.833 1919.5,431.5C 1892.67,446.163 1864.51,449.163 1835,440.5C 1833.86,440.989 1832.69,441.322 1831.5,441.5C 1831.61,440.883 1831.94,440.383 1832.5,440C 1800.15,428.457 1787.81,405.957 1795.5,372.5 Z"/></g>
<g><path style="opacity:1" fill="#e0e1c4" d="M 1769.5,402.5 C 1769,408.228 1768.33,413.895 1767.5,419.5C 1753.89,429.327 1747.55,442.66 1748.5,459.5C 1742.99,473.536 1744.99,486.536 1754.5,498.5C 1733.52,498.049 1712.52,498.716 1691.5,500.5C 1686.11,493.779 1679.78,488.112 1672.5,483.5C 1667.58,478.917 1662.58,474.251 1657.5,469.5C 1656.7,467.958 1656.37,466.292 1656.5,464.5C 1656.5,461.167 1656.5,457.833 1656.5,454.5C 1694.17,437.167 1731.83,419.833 1769.5,402.5 Z"/></g>
<g><path style="opacity:1" fill="#485942" d="M 1552.5,391.5 C 1552.22,400.388 1551.22,409.055 1549.5,417.5C 1549.78,408.612 1550.78,399.945 1552.5,391.5 Z"/></g>
<g><path style="opacity:1" fill="#b2b2b2" d="M 1767.5,419.5 C 1763.39,454.437 1777.73,478.604 1810.5,492C 1811.38,492.708 1812.05,493.542 1812.5,494.5C 1807.84,497.137 1805.18,501.137 1804.5,506.5C 1803.83,506.5 1803.5,506.833 1803.5,507.5C 1790.4,504.056 1777.07,501.722 1763.5,500.5C 1762.83,500.5 1762.17,500.5 1761.5,500.5C 1756,493.006 1751.67,484.839 1748.5,476C 1748.59,470.711 1748.59,465.211 1748.5,459.5C 1747.55,442.66 1753.89,429.327 1767.5,419.5 Z"/></g>
<g><path style="opacity:1" fill="#ececec" d="M 1919.5,431.5 C 1919.5,452.167 1919.5,472.833 1919.5,493.5C 1897.55,501.432 1874.89,504.265 1851.5,502C 1839.24,500.636 1827.24,498.136 1815.5,494.5C 1815.5,484.833 1815.5,475.167 1815.5,465.5C 1818.02,455.64 1823.36,447.64 1831.5,441.5C 1832.69,441.322 1833.86,440.989 1835,440.5C 1864.51,449.163 1892.67,446.163 1919.5,431.5 Z"/></g>
<g><path style="opacity:1" fill="#40453e" d="M 1653.5,437.5 C 1654.43,443.177 1655.43,448.844 1656.5,454.5C 1656.5,457.833 1656.5,461.167 1656.5,464.5C 1654.61,455.737 1653.61,446.737 1653.5,437.5 Z"/></g>
<g><path style="opacity:1" fill="#7ea651" d="M 212.5,458.5 C 225.537,476.448 222.537,491.281 203.5,503C 206.667,506.833 209.833,510.667 213,514.5C 213.458,517.558 213.124,520.558 212,523.5C 203.77,525.452 195.27,526.118 186.5,525.5C 180.833,525.5 175.167,525.5 169.5,525.5C 167.725,522.017 166.892,518.35 167,514.5C 173.112,510.721 178.945,506.555 184.5,502C 170.905,487.759 171.239,473.759 185.5,460C 194.258,454.59 203.258,454.09 212.5,458.5 Z"/></g>
<g><path style="opacity:1" fill="#99c560" d="M 193.5,460.5 C 197.516,459.9 201.016,460.9 204,463.5C 204.257,466.017 203.59,468.35 202,470.5C 197.058,476.397 190.891,479.064 183.5,478.5C 182.639,470.226 185.972,464.226 193.5,460.5 Z"/></g>
<g><path style="opacity:1" fill="#5e8842" d="M 212.5,458.5 C 227.223,468.185 230.39,480.852 222,496.5C 219.982,498.35 218.149,500.35 216.5,502.5C 219.473,504.147 222.14,506.147 224.5,508.5C 212.276,524.802 209.109,542.802 215,562.5C 222.328,580.495 235.328,592.161 254,597.5C 256.141,605.708 252.974,610.542 244.5,612C 237.549,613.291 230.549,614.291 223.5,615C 206.5,615.667 189.5,615.667 172.5,615C 163.71,614.241 155.543,611.741 148,607.5C 147.333,602.5 147.333,597.5 148,592.5C 148.232,591.263 148.732,590.263 149.5,589.5C 152.628,591.154 155.961,592.321 159.5,593C 169.167,593.667 178.833,593.667 188.5,593C 192.746,591.802 195.913,589.302 198,585.5C 202.734,570.5 205.401,555.167 206,539.5C 200.876,533.838 194.376,531.172 186.5,531.5C 186.5,529.5 186.5,527.5 186.5,525.5C 195.27,526.118 203.77,525.452 212,523.5C 213.124,520.558 213.458,517.558 213,514.5C 209.833,510.667 206.667,506.833 203.5,503C 222.537,491.281 225.537,476.448 212.5,458.5 Z"/></g>
<g><path style="opacity:1" fill="#c3c4ab" d="M 1345.5,562.5 C 1345.17,562.5 1344.83,562.5 1344.5,562.5C 1298.6,536.208 1252.6,509.875 1206.5,483.5C 1238.36,475.287 1270.7,469.453 1303.5,466C 1321.83,465.333 1340.17,465.333 1358.5,466C 1402.26,472.634 1410.76,493.467 1384,528.5C 1371.82,540.865 1358.98,552.199 1345.5,562.5 Z"/></g>
<g><path style="opacity:1" fill="#fdfdfd" d="M 1156.5,522.5 C 1167.29,519.193 1175.79,512.86 1182,503.5C 1183.68,491.489 1183.51,479.489 1181.5,467.5C 1184.17,469.833 1186.83,472.167 1189.5,474.5C 1189.93,475.71 1190.6,476.71 1191.5,477.5C 1194.13,481.385 1195.8,485.719 1196.5,490.5C 1197.39,504.333 1192.39,515.5 1181.5,524C 1152.15,542.359 1121.15,545.359 1088.5,533C 1074.62,527.284 1064.95,517.451 1059.5,503.5C 1057.11,494.004 1058.78,485.337 1064.5,477.5C 1065.12,475.246 1066.46,473.579 1068.5,472.5C 1069.76,470.73 1071.26,469.063 1073,467.5C 1072.59,475.628 1072.09,483.795 1071.5,492C 1070.71,498.975 1072.71,504.975 1077.5,510C 1095.92,524.806 1116.92,530.139 1140.5,526C 1146.15,525.713 1151.49,524.546 1156.5,522.5 Z"/></g>
<g><path style="opacity:1" fill="#4b4b4b" d="M 1544.5,468.5 C 1543.27,474.087 1542.43,479.754 1542,485.5C 1538.62,501.387 1543.79,513.554 1557.5,522C 1581.18,533.699 1605.52,535.532 1630.5,527.5C 1643.47,524.026 1652.97,516.359 1659,504.5C 1659.72,492.778 1659.22,481.111 1657.5,469.5C 1662.58,474.251 1667.58,478.917 1672.5,483.5C 1671.62,483.369 1670.96,483.702 1670.5,484.5C 1676.1,499.081 1673.6,512.081 1663,523.5C 1647.84,537.097 1630,544.597 1609.5,546C 1585.39,548.137 1563.39,542.471 1543.5,529C 1537.45,523.458 1532.78,516.958 1529.5,509.5C 1526.88,501.857 1526.88,494.19 1529.5,486.5C 1529.25,485.287 1528.59,484.62 1527.5,484.5C 1533.09,479.25 1538.75,473.917 1544.5,468.5 Z"/></g>
<g><path style="opacity:1" fill="#70a65f" d="M 1068.5,472.5 C 1066.46,473.579 1065.12,475.246 1064.5,477.5C 1042.53,488.765 1032.53,506.765 1034.5,531.5C 1026.05,536.355 1019.88,543.355 1016,552.5C 1009.07,581.397 1017.57,604.231 1041.5,621C 1066.98,636.338 1094.65,643.838 1124.5,643.5C 1146.54,644.154 1167.88,640.821 1188.5,633.5C 1188.83,633.5 1189.17,633.5 1189.5,633.5C 1216.73,625.626 1243.23,615.959 1269,604.5C 1280.44,598.53 1291.94,592.697 1303.5,587C 1317.05,578.549 1330.72,570.382 1344.5,562.5C 1344.83,562.5 1345.17,562.5 1345.5,562.5C 1357.05,568.705 1368.39,575.372 1379.5,582.5C 1297.07,621.213 1214.4,659.713 1131.5,698C 1205.58,740.02 1279.74,782.187 1354,824.5C 1436.85,785.725 1519.68,747.058 1602.5,708.5C 1598.99,705.837 1595.33,703.337 1591.5,701C 1521.77,662.15 1452.44,622.65 1383.5,582.5C 1422.88,563.306 1462.55,544.973 1502.5,527.5C 1502.5,530.5 1502.5,533.5 1502.5,536.5C 1492.29,542.922 1485.45,551.922 1482,563.5C 1478.11,582.707 1481.94,600.04 1493.5,615.5C 1500.26,631.427 1511.59,642.927 1527.5,650C 1556.12,659.41 1585.46,662.41 1615.5,659C 1673.96,651.367 1729.29,634.7 1781.5,609C 1797.42,600.247 1812.09,589.747 1825.5,577.5C 1825.83,577.5 1826.17,577.5 1826.5,577.5C 1834.9,582.209 1843.24,587.209 1851.5,592.5C 1777.43,627.685 1703.09,662.185 1628.5,696C 1620.33,699.886 1612.33,704.053 1604.5,708.5C 1678.08,750.329 1751.42,792.162 1824.5,834C 1741.9,872.652 1659.24,911.319 1576.5,950C 1649.94,992.806 1723.78,1034.97 1798,1076.5C 1838.18,1057.16 1878.68,1038.49 1919.5,1020.5C 1919.5,1040.17 1919.5,1059.83 1919.5,1079.5C 1863.83,1079.5 1808.17,1079.5 1752.5,1079.5C 1454.71,909.659 1156.38,740.159 857.5,571C 857.043,570.586 856.709,570.086 856.5,569.5C 926.754,536.85 997.087,504.184 1067.5,471.5C 1068.11,471.624 1068.44,471.957 1068.5,472.5 Z"/></g>
<g><path style="opacity:1" fill="#ececec" d="M 1064.5,477.5 C 1058.78,485.337 1057.11,494.004 1059.5,503.5C 1057,518.705 1062,531.205 1074.5,541C 1101.5,557.714 1130.17,561.214 1160.5,551.5C 1168.72,557.585 1174.22,565.585 1177,575.5C 1177.5,584.494 1177.67,593.494 1177.5,602.5C 1141.54,615.152 1105.87,614.319 1070.5,600C 1040.97,586.58 1028.97,563.747 1034.5,531.5C 1032.53,506.765 1042.53,488.765 1064.5,477.5 Z"/></g>
<g><path style="opacity:1" fill="#bfc0bf" d="M 1191.5,477.5 C 1212.95,489.066 1222.95,507.066 1221.5,531.5C 1226.76,565.66 1213.43,588.993 1181.5,601.5C 1180.7,601.957 1180.37,602.624 1180.5,603.5C 1179.39,603.443 1178.39,603.11 1177.5,602.5C 1177.67,593.494 1177.5,584.494 1177,575.5C 1174.22,565.585 1168.72,557.585 1160.5,551.5C 1174.35,546.885 1185.35,538.385 1193.5,526C 1195.07,522.637 1196.23,519.137 1197,515.5C 1197.82,506.99 1197.66,498.656 1196.5,490.5C 1195.8,485.719 1194.13,481.385 1191.5,477.5 Z"/></g>
<g><path style="opacity:1" fill="#2a2a2a" d="M 1672.5,483.5 C 1679.78,488.112 1686.11,493.779 1691.5,500.5C 1691.5,500.833 1691.5,501.167 1691.5,501.5C 1694.62,507.192 1696.95,513.192 1698.5,519.5C 1698.67,534.504 1698.5,549.504 1698,564.5C 1695.7,578.458 1688.87,589.625 1677.5,598C 1670.43,603.238 1662.76,607.404 1654.5,610.5C 1653.51,605.544 1653.17,600.544 1653.5,595.5C 1654.16,578.69 1647.33,566.023 1633,557.5C 1610.26,564.94 1587.43,564.774 1564.5,557C 1545.21,551.21 1532.88,538.71 1527.5,519.5C 1528.1,516.029 1528.76,512.695 1529.5,509.5C 1532.78,516.958 1537.45,523.458 1543.5,529C 1563.39,542.471 1585.39,548.137 1609.5,546C 1630,544.597 1647.84,537.097 1663,523.5C 1673.6,512.081 1676.1,499.081 1670.5,484.5C 1670.96,483.702 1671.62,483.369 1672.5,483.5 Z"/></g>
<g><path style="opacity:1" fill="#629153" d="M 1189.5,474.5 C 1195.3,477.233 1200.96,480.233 1206.5,483.5C 1252.6,509.875 1298.6,536.208 1344.5,562.5C 1330.72,570.382 1317.05,578.549 1303.5,587C 1291.94,592.697 1280.44,598.53 1269,604.5C 1243.23,615.959 1216.73,625.626 1189.5,633.5C 1205.8,627.429 1219.63,617.762 1231,604.5C 1238.83,594.943 1241.99,583.943 1240.5,571.5C 1242.2,554.234 1235.87,540.901 1221.5,531.5C 1222.95,507.066 1212.95,489.066 1191.5,477.5C 1190.6,476.71 1189.93,475.71 1189.5,474.5 Z"/></g>
<g><path style="opacity:1" fill="#383838" d="M 1527.5,484.5 C 1528.59,484.62 1529.25,485.287 1529.5,486.5C 1526.88,494.19 1526.88,501.857 1529.5,509.5C 1528.76,512.695 1528.1,516.029 1527.5,519.5C 1532.88,538.71 1545.21,551.21 1564.5,557C 1587.43,564.774 1610.26,564.94 1633,557.5C 1647.33,566.023 1654.16,578.69 1653.5,595.5C 1652.51,600.64 1652.18,605.974 1652.5,611.5C 1623.85,622.096 1594.68,623.762 1565,616.5C 1564.59,616.957 1564.09,617.291 1563.5,617.5C 1558.62,614.485 1553.29,612.652 1547.5,612C 1542.7,609.712 1538.2,607.212 1534,604.5C 1533.67,604.833 1533.33,605.167 1533,605.5C 1526.05,601.211 1519.72,596.211 1514,590.5C 1510.32,585.136 1506.82,579.636 1503.5,574C 1503.96,573.586 1504.29,573.086 1504.5,572.5C 1503.7,571.059 1503.03,569.559 1502.5,568C 1502.62,557.583 1502.62,547.083 1502.5,536.5C 1502.5,533.5 1502.5,530.5 1502.5,527.5C 1503.37,508.753 1511.7,494.42 1527.5,484.5 Z"/></g>
<g><path style="opacity:1" fill="#d7d8d7" d="M 1815.5,465.5 C 1815.5,475.167 1815.5,484.833 1815.5,494.5C 1827.24,498.136 1839.24,500.636 1851.5,502C 1874.89,504.265 1897.55,501.432 1919.5,493.5C 1919.5,505.833 1919.5,518.167 1919.5,530.5C 1893.16,536.231 1866.49,537.897 1839.5,535.5C 1839.5,535.167 1839.5,534.833 1839.5,534.5C 1835.79,526.624 1830.13,520.457 1822.5,516C 1817.04,513.014 1811.37,510.514 1805.5,508.5C 1804.7,508.043 1804.37,507.376 1804.5,506.5C 1805.18,501.137 1807.84,497.137 1812.5,494.5C 1814.16,485.043 1815.16,475.376 1815.5,465.5 Z"/></g>
<g><path style="opacity:1" fill="#4d4949" d="M 258.5,498.5 C 269.893,497.449 280.893,498.949 291.5,503C 292.642,509.084 292.809,515.251 292,521.5C 291.439,522.022 290.772,522.355 290,522.5C 278.627,514.411 266.794,513.578 254.5,520C 243.81,528.248 239.976,539.081 243,552.5C 250.472,569.815 263.305,575.649 281.5,570C 284.506,567.485 287.84,566.151 291.5,566C 292.642,572.084 292.809,578.251 292,584.5C 277.745,590.596 263.245,591.096 248.5,586C 227.385,574.94 218.552,557.44 222,533.5C 227.199,514.465 239.366,502.799 258.5,498.5 Z"/></g>
<g><path style="opacity:1" fill="#4d4949" d="M 321.5,499.5 C 321.169,508.192 321.502,516.859 322.5,525.5C 323.107,525.376 323.44,525.043 323.5,524.5C 325.89,521.972 328.89,520.472 332.5,520C 352.084,516.291 363.25,524.124 366,543.5C 366.667,557.833 366.667,572.167 366,586.5C 365.5,587 365,587.5 364.5,588C 358.584,588.807 352.75,588.641 347,587.5C 346.667,573.5 346.333,559.5 346,545.5C 343.021,536.63 337.188,534.13 328.5,538C 325.894,539.938 324.061,542.438 323,545.5C 322.667,559.167 322.333,572.833 322,586.5C 321.5,587 321,587.5 320.5,588C 314.584,588.807 308.75,588.641 303,587.5C 302.5,557.835 302.333,528.169 302.5,498.5C 309.022,498.177 315.355,498.51 321.5,499.5 Z"/></g>
<g><path style="opacity:1" fill="#c3c4ab" d="M 1748.5,459.5 C 1748.59,465.211 1748.59,470.711 1748.5,476C 1751.67,484.839 1756,493.006 1761.5,500.5C 1759.8,500.34 1758.13,500.506 1756.5,501C 1765.38,509.878 1775.38,517.212 1786.5,523C 1803.76,531.141 1821.76,536.974 1840.5,540.5C 1840.37,538.784 1840.04,537.117 1839.5,535.5C 1866.49,537.897 1893.16,536.231 1919.5,530.5C 1919.5,536.167 1919.5,541.833 1919.5,547.5C 1892.94,548.127 1866.61,546.127 1840.5,541.5C 1840.75,546.58 1840.25,551.58 1839,556.5C 1835.82,564.217 1831.65,571.217 1826.5,577.5C 1826.17,577.5 1825.83,577.5 1825.5,577.5C 1781.14,551.84 1736.47,526.506 1691.5,501.5C 1691.5,501.167 1691.5,500.833 1691.5,500.5C 1712.52,498.716 1733.52,498.049 1754.5,498.5C 1744.99,486.536 1742.99,473.536 1748.5,459.5 Z"/></g>
<g><path style="opacity:1" fill="#747171" d="M 321.5,499.5 C 322.167,507.833 322.833,516.167 323.5,524.5C 323.44,525.043 323.107,525.376 322.5,525.5C 321.502,516.859 321.169,508.192 321.5,499.5 Z"/></g>
<g><path style="opacity:1" fill="#abac96" d="M 1761.5,500.5 C 1762.17,500.5 1762.83,500.5 1763.5,500.5C 1774.57,512.372 1787.9,520.706 1803.5,525.5C 1814.84,530.67 1826.84,533.67 1839.5,534.5C 1839.5,534.833 1839.5,535.167 1839.5,535.5C 1840.04,537.117 1840.37,538.784 1840.5,540.5C 1821.76,536.974 1803.76,531.141 1786.5,523C 1775.38,517.212 1765.38,509.878 1756.5,501C 1758.13,500.506 1759.8,500.34 1761.5,500.5 Z"/></g>
<g><path style="opacity:1" fill="#9c9c9b" d="M 1763.5,500.5 C 1777.07,501.722 1790.4,504.056 1803.5,507.5C 1803.5,513.5 1803.5,519.5 1803.5,525.5C 1787.9,520.706 1774.57,512.372 1763.5,500.5 Z"/></g>
<g><path style="opacity:1" fill="#629053" d="M 1691.5,501.5 C 1736.47,526.506 1781.14,551.84 1825.5,577.5C 1812.09,589.747 1797.42,600.247 1781.5,609C 1729.29,634.7 1673.96,651.367 1615.5,659C 1585.46,662.41 1556.12,659.41 1527.5,650C 1511.59,642.927 1500.26,631.427 1493.5,615.5C 1502.29,625.244 1512.62,633.077 1524.5,639C 1539.55,645.627 1555.22,650.127 1571.5,652.5C 1576.55,654.26 1581.89,654.927 1587.5,654.5C 1596.17,654.5 1604.83,654.5 1613.5,654.5C 1622.58,654.543 1631.58,653.71 1640.5,652C 1641.06,651.617 1641.39,651.117 1641.5,650.5C 1649.23,648.647 1656.89,646.314 1664.5,643.5C 1683.72,637.457 1699.55,626.457 1712,610.5C 1715.32,604.883 1717.65,598.883 1719,592.5C 1724.36,569.562 1718.02,550.896 1700,536.5C 1699.83,530.652 1699.33,524.985 1698.5,519.5C 1696.95,513.192 1694.62,507.192 1691.5,501.5 Z"/></g>
<g><path style="opacity:1" fill="#d3d3d3" d="M 1196.5,490.5 C 1197.66,498.656 1197.82,506.99 1197,515.5C 1196.23,519.137 1195.07,522.637 1193.5,526C 1185.35,538.385 1174.35,546.885 1160.5,551.5C 1130.17,561.214 1101.5,557.714 1074.5,541C 1062,531.205 1057,518.705 1059.5,503.5C 1064.95,517.451 1074.62,527.284 1088.5,533C 1121.15,545.359 1152.15,542.359 1181.5,524C 1192.39,515.5 1197.39,504.333 1196.5,490.5 Z"/></g>
<g><path style="opacity:1" fill="#bcbcbb" d="M 1804.5,506.5 C 1804.37,507.376 1804.7,508.043 1805.5,508.5C 1811.37,510.514 1817.04,513.014 1822.5,516C 1830.13,520.457 1835.79,526.624 1839.5,534.5C 1826.84,533.67 1814.84,530.67 1803.5,525.5C 1803.5,519.5 1803.5,513.5 1803.5,507.5C 1803.5,506.833 1803.83,506.5 1804.5,506.5 Z"/></g>
<g><path style="opacity:1" fill="#4e4a4a" d="M 469.5,518.5 C 479.718,517.856 489.718,519.022 499.5,522C 501.813,522.641 503.48,523.974 504.5,526C 502.503,529.982 500.503,533.982 498.5,538C 494.817,537.445 491.15,536.445 487.5,535C 481.833,534.333 476.167,534.333 470.5,535C 464.319,537.847 463.986,541.181 469.5,545C 479.366,546.587 489.032,548.921 498.5,552C 507.073,556.772 509.906,563.939 507,573.5C 504.035,581.757 498.201,586.924 489.5,589C 476.651,591.436 463.985,590.769 451.5,587C 449.245,586.547 447.911,585.214 447.5,583C 448.582,578.753 450.249,574.753 452.5,571C 459.839,573.551 467.505,575.051 475.5,575.5C 479.273,575.14 482.939,574.307 486.5,573C 489.512,569.755 489.179,567.088 485.5,565C 477.608,562.872 469.608,561.205 461.5,560C 447.078,554.646 442.912,544.813 449,530.5C 454.494,524.01 461.327,520.01 469.5,518.5 Z"/></g>
<g><path style="opacity:1" fill="#4d4949" d="M 439.5,559.5 C 424.152,559.167 408.819,559.501 393.5,560.5C 393.624,561.107 393.957,561.44 394.5,561.5C 396.253,567.754 400.253,571.921 406.5,574C 410.5,574.667 414.5,574.667 418.5,574C 423.265,572.594 427.932,571.261 432.5,570C 435.05,574.24 436.55,578.74 437,583.5C 425.762,588.773 413.929,590.606 401.5,589C 380.126,582.457 371.293,567.957 375,545.5C 379.206,528.453 390.039,519.787 407.5,519.5C 424.909,519.288 435.742,527.621 440,544.5C 440.778,549.584 440.611,554.584 439.5,559.5 Z"/></g>
<g><path style="opacity:1" fill="#4e4a4a" d="M 530.5,519.5 C 542.464,518.335 553.964,520.002 565,524.5C 564.55,529.26 563.05,533.76 560.5,538C 556.158,537.451 551.824,536.451 547.5,535C 542.833,534.333 538.167,534.333 533.5,535C 526.636,539.229 526.969,542.896 534.5,546C 544.309,546.493 553.642,548.826 562.5,553C 572,563.221 571.666,573.221 561.5,583C 545.483,590.871 529.15,591.538 512.5,585C 511.422,584.326 510.755,583.326 510.5,582C 511.854,578.123 513.354,574.29 515,570.5C 515.561,569.978 516.228,569.645 517,569.5C 526.431,574.133 536.264,575.3 546.5,573C 552.116,568.763 551.449,565.43 544.5,563C 534.658,562.567 525.325,560.233 516.5,556C 508.726,548.106 507.559,539.272 513,529.5C 517.961,524.442 523.795,521.108 530.5,519.5 Z"/></g>
<g><path style="opacity:1" fill="#c6d4bb" d="M 169.5,525.5 C 175.167,525.5 180.833,525.5 186.5,525.5C 186.5,527.5 186.5,529.5 186.5,531.5C 186.672,532.492 186.338,533.158 185.5,533.5C 185.5,531.167 185.5,528.833 185.5,526.5C 179.974,526.821 174.64,526.488 169.5,525.5 Z"/></g>
<g><path style="opacity:1" fill="#7ea650" d="M 186.5,531.5 C 194.376,531.172 200.876,533.838 206,539.5C 205.401,555.167 202.734,570.5 198,585.5C 195.913,589.302 192.746,591.802 188.5,593C 178.833,593.667 169.167,593.667 159.5,593C 155.961,592.321 152.628,591.154 149.5,589.5C 152.995,578.829 159.662,570.663 169.5,565C 178.7,556.433 184.033,545.933 185.5,533.5C 186.338,533.158 186.672,532.492 186.5,531.5 Z"/></g>
<g><path style="opacity:1" fill="#d7d7d7" d="M 1034.5,531.5 C 1028.97,563.747 1040.97,586.58 1070.5,600C 1105.87,614.319 1141.54,615.152 1177.5,602.5C 1178.39,603.11 1179.39,603.443 1180.5,603.5C 1183.53,605.372 1185.7,608.039 1187,611.5C 1188.35,618.761 1188.85,626.094 1188.5,633.5C 1167.88,640.821 1146.54,644.154 1124.5,643.5C 1094.65,643.838 1066.98,636.338 1041.5,621C 1017.57,604.231 1009.07,581.397 1016,552.5C 1019.88,543.355 1026.05,536.355 1034.5,531.5 Z"/></g>
<g><path style="opacity:1" fill="#b1b2b1" d="M 1221.5,531.5 C 1235.87,540.901 1242.2,554.234 1240.5,571.5C 1241.99,583.943 1238.83,594.943 1231,604.5C 1219.63,617.762 1205.8,627.429 1189.5,633.5C 1189.17,633.5 1188.83,633.5 1188.5,633.5C 1188.85,626.094 1188.35,618.761 1187,611.5C 1185.7,608.039 1183.53,605.372 1180.5,603.5C 1180.37,602.624 1180.7,601.957 1181.5,601.5C 1213.43,588.993 1226.76,565.66 1221.5,531.5 Z"/></g>
<g><path style="opacity:1" fill="#e8e9ea" d="M 421.5,547.5 C 412.5,547.5 403.5,547.5 394.5,547.5C 394.5,546.5 394.5,545.5 394.5,544.5C 397.361,535.898 403.361,532.731 412.5,535C 418.43,537.092 421.43,541.259 421.5,547.5 Z"/></g>
<g><path style="opacity:1" fill="#404040" d="M 1502.5,536.5 C 1502.62,547.083 1502.62,557.583 1502.5,568C 1503.03,569.559 1503.7,571.059 1504.5,572.5C 1504.29,573.086 1503.96,573.586 1503.5,574C 1506.82,579.636 1510.32,585.136 1514,590.5C 1519.72,596.211 1526.05,601.211 1533,605.5C 1533.33,605.167 1533.67,604.833 1534,604.5C 1538.2,607.212 1542.7,609.712 1547.5,612C 1553.29,612.652 1558.62,614.485 1563.5,617.5C 1564.09,617.291 1564.59,616.957 1565,616.5C 1594.68,623.762 1623.85,622.096 1652.5,611.5C 1657.68,612.508 1661.18,615.508 1663,620.5C 1664.4,628.08 1664.9,635.747 1664.5,643.5C 1656.89,646.314 1649.23,648.647 1641.5,650.5C 1631.99,651.572 1622.66,652.906 1613.5,654.5C 1604.83,654.5 1596.17,654.5 1587.5,654.5C 1582.37,653.335 1577.03,652.668 1571.5,652.5C 1555.22,650.127 1539.55,645.627 1524.5,639C 1512.62,633.077 1502.29,625.244 1493.5,615.5C 1481.94,600.04 1478.11,582.707 1482,563.5C 1485.45,551.922 1492.29,542.922 1502.5,536.5 Z"/></g>
<g><path style="opacity:1" fill="#303030" d="M 1698.5,519.5 C 1699.33,524.985 1699.83,530.652 1700,536.5C 1718.02,550.896 1724.36,569.562 1719,592.5C 1717.65,598.883 1715.32,604.883 1712,610.5C 1699.55,626.457 1683.72,637.457 1664.5,643.5C 1664.9,635.747 1664.4,628.08 1663,620.5C 1661.18,615.508 1657.68,612.508 1652.5,611.5C 1652.18,605.974 1652.51,600.64 1653.5,595.5C 1653.17,600.544 1653.51,605.544 1654.5,610.5C 1662.76,607.404 1670.43,603.238 1677.5,598C 1688.87,589.625 1695.7,578.458 1698,564.5C 1698.5,549.504 1698.67,534.504 1698.5,519.5 Z"/></g>
<g><path style="opacity:1" fill="#504c4c" d="M 596.5,544.5 C 601.179,544.334 605.845,544.501 610.5,545C 612.676,545.163 614.509,545.996 616,547.5C 616.818,550.227 616.652,552.894 615.5,555.5C 609.131,550.922 602.465,550.422 595.5,554C 590.755,559.269 589.255,565.436 591,572.5C 594.529,580.846 600.696,583.679 609.5,581C 611.664,580.086 613.664,578.919 615.5,577.5C 617.935,583.825 615.935,587.658 609.5,589C 587.366,589.177 578.866,578.344 584,556.5C 586.744,550.921 590.911,546.921 596.5,544.5 Z"/></g>
<g><path style="opacity:1" fill="#514d4d" d="M 634.5,544.5 C 655.972,543.14 665.138,553.14 662,574.5C 657.261,585.953 648.761,590.786 636.5,589C 623.477,584.467 617.977,575.3 620,561.5C 622.188,553.486 627.021,547.819 634.5,544.5 Z"/></g>
<g><path style="opacity:1" fill="#4e4a4a" d="M 668.5,544.5 C 671.807,544.063 674.807,544.73 677.5,546.5C 681.907,544.464 686.574,543.964 691.5,545C 694.076,545.782 696.076,547.282 697.5,549.5C 704.019,544.205 711.352,543.039 719.5,546C 722.869,548.365 725.036,551.532 726,555.5C 726.5,566.495 726.667,577.495 726.5,588.5C 723.833,588.5 721.167,588.5 718.5,588.5C 718.666,578.161 718.5,567.828 718,557.5C 715.367,552.268 711.201,550.435 705.5,552C 703.951,553.214 702.785,554.714 702,556.5C 701.5,567.161 701.333,577.828 701.5,588.5C 698.833,588.5 696.167,588.5 693.5,588.5C 693.666,578.161 693.5,567.828 693,557.5C 690.367,552.268 686.201,550.435 680.5,552C 678.951,553.214 677.785,554.714 677,556.5C 676.5,567.161 676.333,577.828 676.5,588.5C 673.833,588.5 671.167,588.5 668.5,588.5C 668.5,573.833 668.5,559.167 668.5,544.5 Z"/></g>
<g><path style="opacity:1" fill="#c0c0c0" d="M 394.5,544.5 C 394.5,545.5 394.5,546.5 394.5,547.5C 403.5,547.5 412.5,547.5 421.5,547.5C 412.348,548.494 403.015,548.827 393.5,548.5C 393.232,546.901 393.566,545.568 394.5,544.5 Z"/></g>
<g><path style="opacity:1" fill="#e9e9ea" d="M 636.5,551.5 C 651.633,551.152 657.467,558.485 654,573.5C 649.968,581.037 643.802,583.537 635.5,581C 628.89,576.18 626.39,569.68 628,561.5C 629.687,557.084 632.52,553.751 636.5,551.5 Z"/></g>
<g><path style="opacity:1" fill="#c1c1c1" d="M 439.5,559.5 C 424.5,560.167 409.5,560.833 394.5,561.5C 393.957,561.44 393.624,561.107 393.5,560.5C 408.819,559.501 424.152,559.167 439.5,559.5 Z"/></g>
<g><path style="opacity:1" fill="#71a660" d="M 1919.5,562.5 C 1919.5,584.833 1919.5,607.167 1919.5,629.5C 1897.53,617.85 1875.87,605.683 1854.5,593C 1876,582.383 1897.66,572.216 1919.5,562.5 Z"/></g>
<g><path style="opacity:1" fill="#514d4d" d="M 572.5,578.5 C 578.989,577.632 581.489,580.299 580,586.5C 576.952,590.482 573.952,590.482 571,586.5C 570.109,583.502 570.609,580.836 572.5,578.5 Z"/></g>
<g><path style="opacity:1" fill="#e0e1c4" d="M 1548.5,419.5 C 1547.34,435.856 1546.01,452.19 1544.5,468.5C 1538.75,473.917 1533.09,479.25 1527.5,484.5C 1511.7,494.42 1503.37,508.753 1502.5,527.5C 1462.55,544.973 1422.88,563.306 1383.5,582.5C 1452.44,622.65 1521.77,662.15 1591.5,701C 1595.33,703.337 1598.99,705.837 1602.5,708.5C 1519.68,747.058 1436.85,785.725 1354,824.5C 1279.74,782.187 1205.58,740.02 1131.5,698C 1214.4,659.713 1297.07,621.213 1379.5,582.5C 1368.39,575.372 1357.05,568.705 1345.5,562.5C 1358.98,552.199 1371.82,540.865 1384,528.5C 1410.76,493.467 1402.26,472.634 1358.5,466C 1340.17,465.333 1321.83,465.333 1303.5,466C 1270.7,469.453 1238.36,475.287 1206.5,483.5C 1200.96,480.233 1195.3,477.233 1189.5,474.5C 1186.83,472.167 1184.17,469.833 1181.5,467.5C 1180.83,460.5 1180.17,453.5 1179.5,446.5C 1255.51,411.358 1331.85,376.358 1408.5,341.5C 1419.02,347.162 1429.69,352.662 1440.5,358C 1476.3,378.737 1512.3,399.237 1548.5,419.5 Z"/></g>
<g><path style="opacity:1" fill="#516b49" d="M 1571.5,652.5 C 1577.03,652.668 1582.37,653.335 1587.5,654.5C 1581.89,654.927 1576.55,654.26 1571.5,652.5 Z"/></g>
<g><path style="opacity:1" fill="#55734b" d="M 1641.5,650.5 C 1641.39,651.117 1641.06,651.617 1640.5,652C 1631.58,653.71 1622.58,654.543 1613.5,654.5C 1622.66,652.906 1631.99,651.572 1641.5,650.5 Z"/></g>
<g><path style="opacity:1" fill="#70a65f" d="M 1919.5,791.5 C 1919.5,823.5 1919.5,855.5 1919.5,887.5C 1888.32,870.08 1857.32,852.414 1826.5,834.5C 1857.36,819.714 1888.36,805.381 1919.5,791.5 Z"/></g>
<g><path style="opacity:1" fill="#e0e1c4" d="M 1919.5,547.5 C 1919.5,552.5 1919.5,557.5 1919.5,562.5C 1897.66,572.216 1876,582.383 1854.5,593C 1875.87,605.683 1897.53,617.85 1919.5,629.5C 1919.5,683.5 1919.5,737.5 1919.5,791.5C 1888.36,805.381 1857.36,819.714 1826.5,834.5C 1857.32,852.414 1888.32,870.08 1919.5,887.5C 1919.5,931.833 1919.5,976.167 1919.5,1020.5C 1878.68,1038.49 1838.18,1057.16 1798,1076.5C 1723.78,1034.97 1649.94,992.806 1576.5,950C 1659.24,911.319 1741.9,872.652 1824.5,834C 1751.42,792.162 1678.08,750.329 1604.5,708.5C 1612.33,704.053 1620.33,699.886 1628.5,696C 1703.09,662.185 1777.43,627.685 1851.5,592.5C 1843.24,587.209 1834.9,582.209 1826.5,577.5C 1831.65,571.217 1835.82,564.217 1839,556.5C 1840.25,551.58 1840.75,546.58 1840.5,541.5C 1866.61,546.127 1892.94,548.127 1919.5,547.5 Z"/></g>
</svg>
